# xmcd CD database file
#
# Track frame offsets:
#	150
#	26621
#	41989
#	70270
#	91238
#	104639
#	126564
#	144170
#	160690
#	173080
#	200752
#	220425
#	242210
#	255362
#	275035
#	288082
#	302786
#
# Disc length: 4407 seconds
#
# Revision: 0
# Processed by: cddbd v1.5PL3 Copyright (c) Steve Scherf et al.
# Submitted via: CDex 1.51
#
DISCID=04113511
DTITLE=Blues And Jazz - Blues And Jazz
DYEAR=1900
DGENRE=Jazz
TTITLE0=Stanley Turrentine/ Walk on By
TTITLE1=Gerry Mulligan/ Swing House
TTITLE2=Sydney Bechet/ Panama Rag
TTITLE3=Taj Mahal/ Honky Tonk Woman
TTITLE4=Taj Mahal/ Statesboro Blues
TTITLE5=Thelonious Monk/ Off Minor
TTITLE6=Tinsley Ellis/ Hey Hey Baby
TTITLE7=Tinsley Ellis/ Bad Dream
TTITLE8=Tinsley Ellis/ The Next Miss Wrong
TTITLE9=United Future Organisation/ Stolen Moments
TTITLE10=United Future Organisation/ Upa Neghuno
TTITLE11=Wes Montgomery/ Bumpin On Sunset
TTITLE12=Wes Montgomery/ Caldonia
TTITLE13=Woody Herman/ John Browns Other Body
TTITLE14=Lester Young/ Good Morning Blues
TTITLE15=Charlie Parker/ They can't take that away from me
TTITLE16=Tinsley Ellis/ Early in the Morning
EXTD=
EXTT0=
EXTT1=
EXTT2=
EXTT3=
EXTT4=
EXTT5=
EXTT6=
EXTT7=
EXTT8=
EXTT9=
EXTT10=
EXTT11=
EXTT12=
EXTT13=
EXTT14=
EXTT15=
EXTT16=
PLAYORDER=
